<?xml version="1.0" standalone="no"?>
<!DOCTYPE svg PUBLIC "-//W3C//DTD SVG 20010904//EN"
 "http://www.w3.org/TR/2001/REC-SVG-20010904/DTD/svg10.dtd">
<svg version="1.0" xmlns="http://www.w3.org/2000/svg"
 width="100px" height="100px" viewBox="0 0 1024.000000 1024.000000"
 preserveAspectRatio="xMidYMid meet">

<g transform="translate(0.000000,1024.000000) scale(0.100000,-0.100000)"
fill="#0D117E" stroke="none">
<path d="M5319 7406 c-2 -2 -40 -6 -84 -9 -106 -8 -148 -22 -192 -60 -95 -83
-81 -229 27 -285 41 -21 52 -23 120 -15 141 15 574 9 695 -10 533 -85 1002
-394 1309 -864 156 -239 263 -529 297 -806 16 -135 7 -410 -20 -557 -72 -405
-259 -770 -544 -1058 -307 -311 -658 -485 -1097 -544 -133 -17 -450 -15 -581
5 -77 12 -116 13 -142 6 -151 -41 -170 -267 -28 -326 53 -23 205 -42 381 -49
575 -24 1124 155 1540 501 100 83 311 302 382 396 499 658 613 1528 299 2279
-103 246 -286 515 -486 715 -383 384 -871 614 -1420 670 -125 13 -445 21 -456
11z"/>
<path d="M3265 7353 c-123 -26 -174 -42 -254 -80 -156 -75 -298 -231 -360
-398 -49 -130 -51 -161 -51 -732 0 -386 -3 -547 -12 -576 -14 -46 -58 -94
-107 -115 -66 -27 -116 -69 -145 -121 -25 -46 -28 -64 -33 -179 -10 -219 22
-295 149 -362 76 -40 103 -63 127 -105 14 -27 17 -97 22 -610 5 -514 7 -587
23 -640 19 -63 83 -199 119 -250 44 -63 145 -160 214 -205 142 -94 276 -130
483 -130 174 0 222 19 261 105 33 71 15 170 -39 218 -38 35 -92 46 -218 47
-176 0 -263 31 -350 122 -58 61 -81 104 -104 193 -19 73 -20 112 -20 626 0
357 -4 566 -11 599 -17 81 -62 136 -158 193 -96 58 -121 90 -121 160 0 66 26
100 108 141 37 19 84 50 105 71 75 73 71 39 77 725 5 465 9 625 19 655 40 121
113 207 221 258 61 29 73 31 225 37 198 8 232 21 270 113 41 99 -9 209 -110
236 -38 10 -287 14 -330 4z"/>
<path d="M4280 6536 c-264 -60 -404 -351 -283 -589 35 -71 112 -143 191 -180
64 -30 73 -32 187 -32 109 0 125 2 178 27 79 37 157 114 198 196 32 64 34 72
34 177 0 93 -4 118 -23 159 -50 110 -134 191 -235 225 -73 25 -180 33 -247 17z"/>
<path d="M6161 6450 c-111 -24 -211 -106 -264 -217 -29 -61 -32 -77 -32 -158
0 -80 4 -97 31 -156 43 -89 93 -142 172 -181 63 -31 73 -33 177 -33 101 0 114
2 163 28 156 82 237 242 210 415 -11 71 -60 162 -111 208 -87 79 -231 118
-346 94z"/>
<path d="M3899 5546 c-103 -28 -190 -103 -237 -205 -22 -47 -26 -70 -26 -146
0 -80 3 -97 31 -157 39 -84 97 -141 181 -181 l67 -32 295 0 295 0 67 33 c80
39 123 86 171 185 49 102 74 124 150 132 34 4 259 5 499 3 508 -4 467 6 533
-122 55 -109 105 -162 184 -200 l66 -31 195 0 c191 0 196 1 252 27 117 54 197
157 218 279 29 165 -53 319 -208 392 l-67 32 -1310 2 c-1017 1 -1320 -1 -1356
-11z"/>
<path d="M4320 4430 c-118 -25 -239 -119 -289 -224 -52 -113 -53 -247 -2 -351
38 -76 120 -156 198 -193 53 -25 69 -27 178 -27 109 0 125 2 176 26 69 32 127
84 169 149 59 93 -27 84 935 90 846 5 850 5 890 27 50 27 80 58 100 105 43
105 -8 234 -113 280 -71 32 -158 33 -367 4 -104 -15 -269 -31 -365 -37 -236
-14 -1015 -7 -1054 9 -16 7 -56 33 -88 57 -32 24 -84 53 -116 65 -65 25 -183
34 -252 20z"/>
</g>
</svg>
